<svg width="11" height="15" viewBox="0 0 11 15" fill="none" xmlns="http://www.w3.org/2000/svg">
<path fill-rule="evenodd" clip-rule="evenodd" d="M5.5 7.30887C7.75895 7.30887 9 5.8205 9 4.65443C9 3.48837 7.75895 2 5.5 2C3.24105 2 2 3.48837 2 4.65443C2 5.8205 3.24105 7.30887 5.5 7.30887ZM11 4.65443C11 6.711 9.42387 8.45605 7.23807 9.07168V12.1316H9.9524V14.1316H1.57145V12.1316H5.23807V9.30368C2.32213 9.18799 0 7.1507 0 4.65443C0 2.08386 2.46243 0 5.5 0C8.53757 0 11 2.08386 11 4.65443Z" fill="black"/>
</svg>
