<svg width="31" height="30" viewBox="0 0 31 30" fill="none" xmlns="http://www.w3.org/2000/svg">
<path d="M28.7829 11.4281C28.9808 11.4282 29.1767 11.3913 29.3595 11.3195C29.5423 11.2477 29.7084 11.1425 29.8483 11.0098C29.9882 10.8771 30.0992 10.7196 30.1749 10.5463C30.2506 10.3729 30.2895 10.1872 30.2895 9.99953V5.71372C30.2896 5.41396 30.1902 5.12178 30.0053 4.87862C29.8205 4.63546 29.5595 4.45368 29.2596 4.35906L15.7004 0.0732437C15.3909 -0.0244146 15.0564 -0.0244146 14.747 0.0732437L1.18778 4.35906C0.887825 4.45368 0.626909 4.63546 0.442048 4.87862C0.257186 5.12178 0.157768 5.41396 0.157898 5.71372V9.99953C0.157847 10.1872 0.19678 10.3729 0.272475 10.5463C0.348169 10.7196 0.459141 10.8771 0.59905 11.0098C0.738959 11.1425 0.905064 11.2477 1.08787 11.3195C1.27068 11.3913 1.46662 11.4282 1.66448 11.4281H3.17106V21.6916C2.29232 21.9851 1.53094 22.5294 0.991439 23.2496C0.451936 23.9698 0.160764 24.8308 0.157898 25.7142V28.5714C0.157847 28.759 0.19678 28.9448 0.272475 29.1182C0.348169 29.2915 0.459141 29.449 0.59905 29.5817C0.738959 29.7143 0.905064 29.8196 1.08787 29.8914C1.27068 29.9631 1.46662 30 1.66448 30H28.7829C28.9808 30 29.1767 29.9631 29.3595 29.8914C29.5423 29.8196 29.7084 29.7143 29.8483 29.5817C29.9882 29.449 30.0992 29.2915 30.1749 29.1182C30.2506 28.9448 30.2895 28.759 30.2895 28.5714V25.7142C30.2866 24.8308 29.9954 23.9698 29.4559 23.2496C28.9164 22.5294 28.1551 21.9851 27.2763 21.6916V11.4281H28.7829ZM27.2763 27.1428H3.17106V25.7142C3.17145 25.3354 3.33031 24.9723 3.61276 24.7044C3.89522 24.4366 4.27819 24.286 4.67763 24.2856H25.7697C26.1692 24.286 26.5522 24.4366 26.8346 24.7044C27.1171 24.9723 27.2759 25.3354 27.2763 25.7142V27.1428ZM6.18421 21.4284V11.4281H9.19737V21.4284H6.18421ZM12.2105 21.4284V11.4281H18.2368V21.4284H12.2105ZM21.25 21.4284V11.4281H24.2632V21.4284H21.25ZM3.17106 8.57093V6.74331L15.2237 2.93322L27.2763 6.74331V8.57093H3.17106Z" fill="black"/>
</svg>
