<svg width="31" height="30" viewBox="0 0 31 30" fill="none" xmlns="http://www.w3.org/2000/svg">
<path d="M29.5814 2.875C29.3524 2.65558 29.0926 2.54007 28.8281 2.54007C28.5636 2.54007 28.3038 2.65558 28.0748 2.875L22.7566 7.225C22.7137 5.28393 22.2186 3.44618 21.3756 2.0986C20.5326 0.751012 19.4074 -0.00130444 18.2368 1.69789e-06H4.67763C3.47893 1.69789e-06 2.32931 0.790178 1.4817 2.1967C0.634083 3.60322 0.157898 5.51088 0.157898 7.5V22.5C0.157898 24.4891 0.634083 26.3968 1.4817 27.8033C2.32931 29.2098 3.47893 30 4.67763 30H18.2368C19.4074 30.0013 20.5326 29.249 21.3756 27.9014C22.2186 26.5538 22.7137 24.7161 22.7566 22.775L28.12 27.225C28.3254 27.3997 28.5522 27.4938 28.7829 27.5C29.065 27.5015 29.3416 27.3716 29.5814 27.125C29.7985 26.8998 29.9775 26.5865 30.1013 26.2147C30.2252 25.8429 30.29 25.4249 30.2895 25V5C30.29 4.57514 30.2252 4.15707 30.1013 3.78526C29.9775 3.41346 29.7985 3.10018 29.5814 2.875ZM19.7434 22.5C19.7434 23.163 19.5847 23.7989 19.3022 24.2678C19.0196 24.7366 18.6364 25 18.2368 25H4.67763C4.27806 25 3.89486 24.7366 3.61232 24.2678C3.32978 23.7989 3.17106 23.163 3.17106 22.5V7.5C3.17106 6.83696 3.32978 6.20108 3.61232 5.73223C3.89486 5.26339 4.27806 5 4.67763 5H18.2368C18.6364 5 19.0196 5.26339 19.3022 5.73223C19.5847 6.20108 19.7434 6.83696 19.7434 7.5V22.5ZM27.2763 20.95L22.7566 17.2V12.8L27.2763 9.05V20.95Z" fill="black"/>
</svg>
