<svg width="31" height="30" viewBox="0 0 31 30" fill="none" xmlns="http://www.w3.org/2000/svg">
<path d="M29.5576 10.5716L28.1226 9.53518L15.2071 0.113065H15.0493C14.9613 0.0642187 14.87 0.0263631 14.7766 0H14.504H14.2457C14.1476 0.0263805 14.0516 0.0642195 13.9587 0.113065H13.8008L0.885392 9.53518C0.664541 9.69953 0.480844 9.93787 0.353039 10.2259C0.225235 10.5139 0.157898 10.8413 0.157898 11.1746C0.157898 11.508 0.225235 11.8353 0.353039 12.1234C0.480844 12.4114 0.664541 12.6497 0.885392 12.8141L4.45866 15.4146V24.3467C4.45866 25.8461 4.91223 27.284 5.7196 28.3442C6.52697 29.4044 7.622 30 8.76379 30H20.2442C21.386 30 22.481 29.4044 23.2883 28.3442C24.0957 27.284 24.5493 25.8461 24.5493 24.3467V15.4146L27.4194 13.304V18.6935C27.4194 19.1932 27.5706 19.6726 27.8397 20.026C28.1088 20.3794 28.4738 20.5779 28.8544 20.5779C29.235 20.5779 29.6 20.3794 29.8692 20.026C30.1383 19.6726 30.2895 19.1932 30.2895 18.6935V12.2111C30.289 11.8771 30.221 11.5494 30.0924 11.2613C29.9638 10.9732 29.7793 10.7352 29.5576 10.5716ZM21.6792 24.3467C21.6792 24.8465 21.528 25.3258 21.2589 25.6792C20.9898 26.0326 20.6248 26.2312 20.2442 26.2312H8.76379C8.38319 26.2312 8.01819 26.0326 7.74906 25.6792C7.47994 25.3258 7.32875 24.8465 7.32875 24.3467V17.5063L13.8008 22.2173L14.0161 22.3304H14.1452C14.2643 22.3501 14.3849 22.3501 14.504 22.3304C14.6231 22.3501 14.7436 22.3501 14.8627 22.3304H14.9919C15.0681 22.3093 15.1409 22.2711 15.2071 22.2173L21.6792 17.5063V24.3467ZM14.504 18.4296L4.54476 11.1558L14.504 3.88191L24.4632 11.1558L14.504 18.4296Z" fill="black"/>
</svg>
