<svg width="31" height="30" viewBox="0 0 31 30" fill="none" xmlns="http://www.w3.org/2000/svg">
<path d="M10.1774 15.7228C9.87784 15.7228 9.58497 15.8108 9.33587 15.9756C9.08677 16.1404 8.89262 16.3746 8.77797 16.6486C8.66332 16.9227 8.63332 17.2242 8.69177 17.5151C8.75022 17.806 8.89449 18.0733 9.10633 18.283C9.31817 18.4927 9.58808 18.6356 9.88192 18.6934C10.1758 18.7513 10.4803 18.7216 10.7571 18.6081C11.0339 18.4946 11.2705 18.3024 11.4369 18.0557C11.6034 17.8091 11.6922 17.5192 11.6922 17.2225C11.6922 16.8248 11.5326 16.4433 11.2485 16.1621C10.9645 15.8808 10.5792 15.7228 10.1774 15.7228ZM10.1774 9.00417C9.87784 9.00417 9.58497 9.09213 9.33587 9.25692C9.08677 9.42171 8.89262 9.65593 8.77797 9.92996C8.66332 10.204 8.63332 10.5055 8.69177 10.7965C8.75022 11.0874 8.89449 11.3546 9.10633 11.5643C9.31817 11.7741 9.58808 11.9169 9.88192 11.9748C10.1758 12.0326 10.4803 12.0029 10.7571 11.8894C11.0339 11.7759 11.2705 11.5837 11.4369 11.3371C11.6034 11.0904 11.6922 10.8005 11.6922 10.5039C11.6922 10.1061 11.5326 9.72467 11.2485 9.44343C10.9645 9.16218 10.5792 9.00417 10.1774 9.00417ZM15.464 12.0036C15.0622 12.0036 14.6769 12.1616 14.3929 12.4428C14.1088 12.7241 13.9492 13.1055 13.9492 13.5033V15.003C13.9492 15.4007 14.1088 15.7822 14.3929 16.0634C14.6769 16.3447 15.0622 16.5027 15.464 16.5027C15.8657 16.5027 16.251 16.3447 16.5351 16.0634C16.8191 15.7822 16.9787 15.4007 16.9787 15.003V13.5033C16.9787 13.1055 16.8191 12.7241 16.5351 12.4428C16.251 12.1616 15.8657 12.0036 15.464 12.0036ZM28.3395 9.859C27.8169 9.56133 27.2398 9.36958 26.6416 9.29491C26.0435 9.22024 25.4363 9.26415 24.8555 9.42409C24.251 9.5844 23.6881 9.87073 23.2044 10.2639L5.63313 0.200922C5.40286 0.0692957 5.14164 0 4.87575 0C4.60985 0 4.34864 0.0692957 4.11836 0.200922C3.88438 0.331135 3.68955 0.520564 3.55381 0.749819C3.41807 0.979074 3.3463 1.23992 3.34583 1.50566V21.2567C2.4519 21.5553 1.67682 22.1271 1.13234 22.8899C0.587859 23.6527 0.302113 24.567 0.3163 25.5009C0.315878 26.6736 0.777981 27.8002 1.60417 28.6406C2.43036 29.4809 3.55532 29.9687 4.73942 30H5.61798C10.5815 29.9885 15.4535 28.6768 19.7394 26.1983C24.0254 23.7197 27.5725 20.1625 30.0209 15.8878C30.5863 14.865 30.7286 13.6648 30.4178 12.5402C30.107 11.4155 29.3673 10.4543 28.3546 9.859H28.3395ZM6.37537 4.10015L21.3564 12.6634C19.6944 15.1188 17.4725 17.1528 14.8702 18.6012C12.2678 20.0497 9.35789 20.872 6.37537 21.0018V4.10015ZM27.3852 14.4181C25.1364 18.3408 21.8523 21.5841 17.8845 23.8005C13.9167 26.017 9.41471 27.1232 4.8606 27.0006C4.45886 27.0006 4.07357 26.8426 3.7895 26.5613C3.50542 26.2801 3.34583 25.8986 3.34583 25.5009C3.34465 25.2999 3.38426 25.1008 3.46233 24.9153C3.54039 24.7298 3.65531 24.5618 3.80026 24.4211C4.08484 24.1495 4.46536 23.9988 4.8606 24.0012H5.63313C9.52262 23.9996 13.3419 22.9755 16.7006 21.0336C20.0593 19.0916 22.8369 16.3015 24.7495 12.9484C24.8414 12.7839 24.9671 12.6402 25.1184 12.5266C25.2697 12.4129 25.4433 12.3319 25.628 12.2885C26.01 12.1847 26.4178 12.2332 26.7641 12.4235C27.1117 12.6084 27.3726 12.9203 27.4914 13.2929C27.6102 13.6654 27.5776 14.0691 27.4003 14.4181H27.3852Z" fill="black"/>
</svg>
