<svg width="31" height="30" viewBox="0 0 31 30" fill="none" xmlns="http://www.w3.org/2000/svg">
<path d="M13.1693 10.8333H11.7996V9.16667C11.7996 8.72464 11.6553 8.30072 11.3985 7.98816C11.1416 7.67559 10.7933 7.5 10.43 7.5C10.0668 7.5 9.71842 7.67559 9.46156 7.98816C9.20471 8.30072 9.06041 8.72464 9.06041 9.16667V10.8333H7.69079C7.32755 10.8333 6.97918 11.0089 6.72233 11.3215C6.46547 11.634 6.32118 12.058 6.32118 12.5C6.32118 12.942 6.46547 13.3659 6.72233 13.6785C6.97918 13.9911 7.32755 14.1667 7.69079 14.1667H9.06041V15.8333C9.06041 16.2754 9.20471 16.6993 9.46156 17.0118C9.71842 17.3244 10.0668 17.5 10.43 17.5C10.7933 17.5 11.1416 17.3244 11.3985 17.0118C11.6553 16.6993 11.7996 16.2754 11.7996 15.8333V14.1667H13.1693C13.5325 14.1667 13.8809 13.9911 14.1377 13.6785C14.3946 13.3659 14.5389 12.942 14.5389 12.5C14.5389 12.058 14.3946 11.634 14.1377 11.3215C13.8809 11.0089 13.5325 10.8333 13.1693 10.8333ZM30.1936 14.4167L30.1114 14.2333C30.0878 14.1509 30.0556 14.0724 30.0156 14L26.7285 8.66667C26.3457 8.04569 25.8495 7.54167 25.2789 7.19453C24.7084 6.84739 24.0793 6.66667 23.4414 6.66667H20.7022V5C20.7022 3.67392 20.2693 2.40215 19.4987 1.46447C18.7281 0.526784 17.683 0 16.5933 0H4.26675C3.17701 0 2.13191 0.526784 1.36135 1.46447C0.590794 2.40215 0.157898 3.67392 0.157898 5V23.3333C0.157898 23.7754 0.302196 24.1993 0.559049 24.5118C0.815903 24.8244 1.16427 25 1.52752 25H2.89713C2.89713 26.3261 3.33003 27.5979 4.10059 28.5355C4.87115 29.4732 5.91625 30 7.00598 30C8.09572 30 9.14082 29.4732 9.91138 28.5355C10.6819 27.5979 11.1148 26.3261 11.1148 25H19.3325C19.3325 26.3261 19.7654 27.5979 20.536 28.5355C21.3066 29.4732 22.3517 30 23.4414 30C24.5311 30 25.5762 29.4732 26.3468 28.5355C27.1173 27.5979 27.5502 26.3261 27.5502 25H28.9199C29.2831 25 29.6315 24.8244 29.8883 24.5118C30.1452 24.1993 30.2895 23.7754 30.2895 23.3333V15C30.2865 14.8001 30.2541 14.6025 30.1936 14.4167ZM7.00598 26.6667C6.7351 26.6667 6.4703 26.5689 6.24507 26.3858C6.01983 26.2026 5.84429 25.9423 5.74062 25.6378C5.63696 25.3333 5.60984 24.9981 5.66268 24.6748C5.71553 24.3515 5.84597 24.0546 6.03752 23.8215C6.22906 23.5884 6.47311 23.4297 6.73879 23.3654C7.00446 23.301 7.27985 23.3341 7.53011 23.4602C7.78038 23.5863 7.99428 23.8 8.14478 24.074C8.29527 24.3481 8.3756 24.6704 8.3756 25C8.3756 25.442 8.2313 25.866 7.97445 26.1785C7.7176 26.4911 7.36923 26.6667 7.00598 26.6667ZM17.9629 21.6667H10.0465C9.66142 21.1511 9.19201 20.7391 8.6684 20.4572C8.14479 20.1753 7.57855 20.0297 7.00598 20.0297C6.43342 20.0297 5.86717 20.1753 5.34357 20.4572C4.81996 20.7391 4.35054 21.1511 3.96543 21.6667H2.89713V5C2.89713 4.55797 3.04143 4.13405 3.29828 3.82149C3.55514 3.50893 3.9035 3.33333 4.26675 3.33333H16.5933C16.9565 3.33333 17.3049 3.50893 17.5618 3.82149C17.8186 4.13405 17.9629 4.55797 17.9629 5V21.6667ZM20.7022 10H23.4414C23.654 10 23.8637 10.0602 24.0539 10.176C24.2441 10.2917 24.4095 10.4597 24.5371 10.6667L26.1806 13.3333H20.7022V10ZM23.4414 26.6667C23.1705 26.6667 22.9057 26.5689 22.6805 26.3858C22.4552 26.2026 22.2797 25.9423 22.176 25.6378C22.0724 25.3333 22.0452 24.9981 22.0981 24.6748C22.1509 24.3515 22.2814 24.0546 22.4729 23.8215C22.6645 23.5884 22.9085 23.4297 23.1742 23.3654C23.4399 23.301 23.7153 23.3341 23.9655 23.4602C24.2158 23.5863 24.4297 23.8 24.5802 24.074C24.7307 24.3481 24.811 24.6704 24.811 25C24.811 25.442 24.6667 25.866 24.4099 26.1785C24.153 26.4911 23.8046 26.6667 23.4414 26.6667ZM27.5502 21.6667H26.4819C25.7531 20.6901 24.7367 20.1035 23.6541 20.0349C22.5715 19.9662 21.5105 20.4209 20.7022 21.3V16.6667H27.5502V21.6667Z" fill="black"/>
</svg>
