<svg width="25" height="25" viewBox="0 0 25 25" fill="none" xmlns="http://www.w3.org/2000/svg">
<path fill-rule="evenodd" clip-rule="evenodd" d="M19 11.5192C19 16.5015 15.1256 20.4135 10.5 20.4135C5.87442 20.4135 2 16.5015 2 11.5192C2 6.53696 5.87442 2.625 10.5 2.625C15.1256 2.625 19 6.53696 19 11.5192ZM21 11.5192C21 17.5359 16.299 22.4135 10.5 22.4135C4.70101 22.4135 0 17.5359 0 11.5192C0 5.50251 4.70101 0.625 10.5 0.625C16.299 0.625 21 5.50251 21 11.5192ZM18.7174 18.7318C18.3223 19.1231 18.3223 19.7615 18.7174 20.1528L22.9532 24.3479C23.3429 24.7338 23.9708 24.7338 24.3605 24.3479C24.7556 23.9566 24.7556 23.3182 24.3605 22.9269L20.1247 18.7318C19.735 18.3459 19.1071 18.3459 18.7174 18.7318Z" fill="black"/>
</svg>
